<svg xmlns="http://www.w3.org/2000/svg"
   xmlns:xlink="http://www.w3.org/1999/xlink"
   version="1.1"
   id="ammeter" width="100%" height="100%"  viewBox="-6 -6 806 390">
<desc>
XCircuit Version 3.9
File "ammeter.ps" Page 1
</desc>
<g stroke="black">
<path d="M160,144 L160,172 " fill="none" stroke-width="2" stroke-linejoin="bevel" stroke-linecap="round" stroke="#000000" />
<path d="M160,272 L160,244 " fill="none" stroke-width="2" stroke-linejoin="bevel" stroke-linecap="round" stroke="#000000" />
<path d="M160,244 L174,238 146,226 174,214 146,202 174,190 146,178 160,172 " fill="none" stroke-width="2" stroke-linejoin="bevel" stroke-linecap="round" stroke="#000000" />
<path d="M336,272 L336,112 496,192 z" fill="none" stroke-width="2" stroke-linejoin="bevel" stroke-linecap="round" stroke="#000000" />
<g transform="matrix(   1    0   -0    1 355 150)" fill="#000000" >
<text stroke="none" font-family="Times" font-size="40" ><tspan x="-11" y="6">&#8722;</tspan>
</text></g>
<g transform="matrix(   1    0   -0    1 355 242)" fill="#000000" >
<text stroke="none" font-family="Times" font-size="40" ><tspan x="-11" y="11">+</tspan>
</text></g>
<path d="M336,144 L160,144 " fill="none" stroke-width="2" stroke-linejoin="bevel" stroke-linecap="round" stroke="#000000" />
<path d="M336,240 L240,240 240,272 160,272 " fill="none" stroke-width="2" stroke-linejoin="bevel" stroke-linecap="round" stroke="#000000" />
<path d="M160,144 L160,96 96,96 " fill="none" stroke-width="2" stroke-linejoin="bevel" stroke-linecap="round" stroke="#000000" />
<path d="M160,272 L96,272 " fill="none" stroke-width="2" stroke-linejoin="bevel" stroke-linecap="round" stroke="#000000" />
<path d="M544,96 L544,272 752,272 752,96 z" fill="none" stroke-width="2" stroke-linejoin="bevel" stroke-linecap="round" stroke="#000000" />
<path d="M496,192 L544,192 " fill="none" stroke-width="2" stroke-linejoin="bevel" stroke-linecap="round" stroke="#000000" />
<g transform="matrix(   1    0   -0    1 608 144)" fill="#000000" >
<text stroke="none" font-family="Helvetica" font-size="40" ><tspan x="0" y="0">ADC</tspan>
</text></g>
<g transform="matrix(   1    0   -0    1 608 192)" fill="#000000" >
<text stroke="none" font-family="Helvetica" font-size="40" ><tspan x="0" y="0">and</tspan>
</text></g>
<g transform="matrix(   1    0   -0    1 560 240)" fill="#000000" >
<text stroke="none" font-family="Helvetica" font-size="40" ><tspan x="0" y="0">DISPLAY</tspan>
</text></g>
<path d="M116,104 C126,99 129,99 144,96 C129,93 126,93 116,88 C118,94 118,98 116,104 " fill="#000000" stroke="none" />
<path d="M140,264 C130,269 127,269 112,272 C127,275 130,275 140,280 C138,274 138,270 140,264 " fill="#000000" stroke="none" />
<ellipse cx="80" cy="272" rx="16" ry="16" fill="none" stroke-width="2" stroke-linejoin="bevel" stroke-linecap="round" stroke="#000000" />
<ellipse cx="80" cy="96" rx="16" ry="16" fill="none" stroke-width="2" stroke-linejoin="bevel" stroke-linecap="round" stroke="#000000" />
<path d="M0,0 L0,384 800,384 800,0 z" fill="none" stroke-width="2" stroke-linejoin="bevel" stroke-linecap="round" stroke="#000000" />
<g transform="matrix(   1    0   -0    1  96 352)" fill="#000000" >
<text stroke="none" font-family="Helvetica" font-size="40" ><tspan x="0" y="0">Digital Ammeter Block Diagram</tspan>
</text></g>
<g transform="matrix(   1    0   -0    1 320  96)" fill="#000000" >
<text stroke="none" font-family="Helvetica" font-size="40" ><tspan x="0" y="0">Amplifier</tspan>
</text></g>
</g>
</svg>
